<svg width="24" height="16" xmlns="http://www.w3.org/2000/svg"><path d="M7.416 12.029H3.355v-3.91h4.257s1.542-.02 1.542 2.01c0 1.691-1.128 1.883-1.738 1.9zM3.355 2.6h4.257s1.035 0 1.035 1.522-.609 1.742-1.299 1.742H3.355V2.6zM9.52 6.68s2.232-.166 2.232-2.783C11.752 1.277 9.926 0 7.612 0H0v14.629h7.612s4.647.146 4.647-4.318c0 0 .203-3.632-2.74-3.632zm11.393 1.718h-4.805s.315-2.255 2.574-2.255c2.26 0 2.231 2.255 2.231 2.255M18.625 4c-5.625 0-5.62 5.62-5.62 5.62s-.386 5.592 5.62 5.592c0 0 5.006.286 5.006-3.89h-2.575s.087 1.573-2.345 1.573c0 0-2.574.173-2.574-2.545h7.58S24.546 4 18.625 4m2.41-3H15v1.474h6.035z" fill="#FFF" fill-rule="evenodd"/></svg>