<svg width="24" height="24" xmlns="http://www.w3.org/2000/svg"><path d="M19.591 5.438c-.212.288-1.9 2.452-5.624 3.973a30.25 30.25 0 0 1 .885 1.978c3.351-.42 6.682.254 7.014.324a10.028 10.028 0 0 0-2.275-6.275M9.433 2.015a53.858 53.858 0 0 1 3.759 5.897c3.582-1.342 5.098-3.38 5.28-3.638a10.03 10.03 0 0 0-6.678-2.539c-.813 0-1.604.097-2.36.28m-7.5 7.73c.45.006 4.6.025 9.312-1.227A64.286 64.286 0 0 0 7.51 2.692a10.111 10.111 0 0 0-5.578 7.053m2.377 8.799c.228-.39 2.992-4.968 8.188-6.647.131-.043.264-.083.397-.12a33.453 33.453 0 0 0-.817-1.71c-5.03 1.505-9.912 1.443-10.352 1.434a10.033 10.033 0 0 0 2.584 7.043m11.419 2.538c-.15-.884-.735-3.964-2.15-7.64l-.066.023c-5.681 1.98-7.72 5.92-7.902 6.29a10.022 10.022 0 0 0 6.183 2.127 10.02 10.02 0 0 0 3.935-.8m6.011-7.674c-.345-.11-3.118-.936-6.275-.431 1.318 3.62 1.854 6.57 1.957 7.182a10.09 10.09 0 0 0 4.318-6.751m-9.946 10.18C5.29 23.587 0 18.295 0 11.793 0 5.29 5.29 0 11.794 0c6.503 0 11.793 5.29 11.793 11.794 0 6.502-5.29 11.793-11.793 11.793" fill="#FFF" fill-rule="evenodd"/></svg>