<svg width="24" height="24" xmlns="http://www.w3.org/2000/svg"><path d="M20.639 21.376H2.949a.737.737 0 0 1-.738-.737V9.582H5.16c-.384.553-.514 1.584-.514 2.239 0 3.947 3.219 7.159 7.175 7.159 3.957 0 7.176-3.212 7.176-7.16 0-.654-.093-1.67-.57-2.238h2.949V20.64c0 .407-.33.737-.737.737M11.82 7.296a4.53 4.53 0 0 1 4.536 4.525 4.53 4.53 0 0 1-4.536 4.526 4.53 4.53 0 0 1-4.535-4.526 4.53 4.53 0 0 1 4.535-4.525m5.87-4.348h2.21c.408 0 .738.33.738.738v2.21c0 .408-.33.738-.737.738H17.69a.737.737 0 0 1-.737-.737V3.686c0-.407.33-.738.737-.738M20.783 0H2.803A2.8 2.8 0 0 0 0 2.797V20.79a2.8 2.8 0 0 0 2.804 2.797h17.98a2.8 2.8 0 0 0 2.803-2.797V2.797A2.8 2.8 0 0 0 20.783 0" fill="#FFF" fill-rule="evenodd"/></svg>