<svg width="24" height="20" xmlns="http://www.w3.org/2000/svg"><path d="M23.587 2.269c-.867.385-1.8.645-2.78.762 1-.6 1.767-1.547 2.129-2.677a9.705 9.705 0 0 1-3.073 1.174A4.833 4.833 0 0 0 16.33 0a4.839 4.839 0 0 0-4.713 5.942A13.739 13.739 0 0 1 1.642.885a4.82 4.82 0 0 0-.655 2.433c0 1.679.854 3.16 2.152 4.028A4.814 4.814 0 0 1 .948 6.74v.061c0 2.345 1.667 4.3 3.881 4.745a4.848 4.848 0 0 1-2.185.083 4.844 4.844 0 0 0 4.52 3.36 9.71 9.71 0 0 1-6.01 2.072c-.39 0-.775-.023-1.154-.067a13.7 13.7 0 0 0 7.418 2.173c8.901 0 13.768-7.374 13.768-13.768 0-.21-.004-.419-.014-.627a9.814 9.814 0 0 0 2.415-2.504" fill="#FFF" fill-rule="evenodd"/></svg>