<svg xmlns="http://www.w3.org/2000/svg">
    <symbol id="menu" viewBox="0 0 24 24">
        <path d="M24 6h-24v-4h24v4zm0 4h-24v4h24v-4zm0 8h-24v4h24v-4z"/>
    </symbol>
    <symbol id="x-mark" viewBox="0 0 24 24">
        <path d="M23.954 21.03l-9.184-9.095 9.092-9.174-2.832-2.807-9.09 9.179-9.176-9.088-2.81 2.81 9.186 9.105-9.095 9.184 2.81 2.81 9.112-9.192 9.18 9.1z"/>
    </symbol>
    <symbol id="arrow" viewBox="0 0 24 24">
        <path d="M0 7.33l2.829-2.83 9.175 9.339 9.167-9.339 2.829 2.83-11.996 12.17z"/>
    </symbol>
    <symbol id="theme" viewBox="0 0 24 24">
        <path d="M12 2c5.514 0 10 4.486 10 10s-4.486 10-10 10v-20zm0-2c-6.627 0-12 5.373-12 12s5.373 12 12 12 12-5.373 12-12-5.373-12-12-12z"/>
    </symbol>
    <symbol id="share" viewBox="0 0 24 24">
        <path d="M21 13v10h-21v-19h12v2h-10v15h17v-8h2zm3-12h-10.988l4.035 4-6.977 7.07 2.828 2.828 6.977-7.07 4.125 4.172v-11z"/>
    </symbol>
</svg>